<?xml version="1.0" standalone="no"?>
<!DOCTYPE svg PUBLIC "-//W3C//DTD SVG 20010904//EN"
 "http://www.w3.org/TR/2001/REC-SVG-20010904/DTD/svg10.dtd">
<svg version="1.0" xmlns="http://www.w3.org/2000/svg"
 width="777.000000pt" height="777.000000pt" viewBox="0 0 777.000000 777.000000"
 preserveAspectRatio="xMidYMid meet">
<metadata>
Created by potrace 1.14, written by Peter Selinger 2001-2017
</metadata>
<g transform="translate(0.000000,777.000000) scale(0.100000,-0.100000)"
fill="#000000" stroke="none">
<path d="M6895 7755 c-60 -7 -177 -20 -260 -29 -429 -45 -1066 -112 -1490
-156 -110 -11 -346 -36 -525 -55 -179 -19 -410 -43 -515 -54 -104 -11 -280
-29 -390 -41 -110 -12 -283 -30 -385 -40 -102 -11 -250 -27 -330 -35 -80 -8
-228 -24 -330 -35 -102 -10 -275 -28 -385 -40 -110 -12 -283 -30 -385 -40
-102 -11 -250 -27 -330 -35 -140 -15 -255 -27 -760 -80 -225 -23 -361 -37
-664 -69 -76 -8 -140 -16 -141 -18 -2 -2 3 -59 11 -128 12 -116 22 -205 74
-710 11 -102 38 -356 60 -565 22 -209 48 -465 59 -570 11 -104 27 -257 36
-340 16 -157 82 -780 115 -1095 10 -102 26 -252 35 -335 9 -82 27 -256 40
-385 14 -129 31 -300 40 -380 8 -80 24 -228 35 -330 10 -102 28 -275 40 -385
12 -110 30 -285 41 -390 36 -351 109 -1048 129 -1229 10 -98 21 -180 23 -182
2 -2 89 5 193 16 104 11 272 29 374 40 102 10 253 26 335 35 157 16 780 82
1095 115 280 29 449 47 865 90 209 22 463 49 565 60 102 10 275 28 385 40 110
12 283 30 385 40 102 11 250 27 330 35 80 8 228 24 330 35 102 10 275 28 385
40 110 12 283 30 385 40 102 11 250 27 330 35 143 15 294 31 765 80 132 14
249 25 260 25 43 0 45 8 30 145 -8 72 -24 220 -35 330 -45 435 -60 576 -75
715 -9 80 -26 251 -40 380 -13 129 -31 303 -40 385 -9 83 -25 233 -35 335 -11
102 -38 356 -60 565 -22 209 -48 466 -59 570 -11 105 -27 258 -36 340 -16 157
-82 780 -115 1095 -28 274 -46 444 -90 865 -22 209 -47 445 -55 525 -8 80 -22
206 -30 280 -8 74 -21 205 -30 290 -20 202 -24 220 -38 219 -7 -1 -61 -7 -122
-14z m-4177 -2297 l-3 -183 -537 -3 -538 -2 0 -178 0 -177 535 3 535 2 0 -185
0 -185 -535 0 -535 0 0 -175 0 -175 540 0 540 0 0 -185 0 -185 -720 0 -720 0
0 905 0 905 720 0 720 0 -2 -182z m687 137 c166 -185 530 -575 536 -573 6 3
340 367 499 545 l65 72 245 1 244 0 -61 -62 c-33 -35 -216 -227 -406 -427
l-346 -364 62 -71 c468 -537 726 -834 745 -857 l23 -29 -248 0 -248 0 -100
118 c-507 596 -497 585 -516 565 -9 -10 -92 -108 -184 -218 -92 -110 -218
-260 -279 -332 l-111 -133 -237 0 c-138 0 -238 4 -238 9 0 5 3 11 8 13 4 2 39
39 77 83 39 44 84 95 101 115 17 19 169 192 338 384 l306 348 -36 42 c-20 22
-82 88 -138 146 -56 58 -200 209 -321 335 -120 127 -242 254 -269 283 l-50 52
249 0 250 0 40 -45z m3306 31 c113 -26 208 -107 251 -215 l23 -56 0 -760 0
-760 -180 0 -180 0 -3 358 -2 357 -535 0 -535 0 -2 -357 -3 -358 -180 0 -180
0 0 765 0 765 23 56 c42 104 128 179 236 205 76 18 1189 19 1267 0z m-4051
-2866 l0 -460 -302 0 c-425 0 -400 -23 -396 371 l3 259 38 37 37 38 240 3 240
3 0 105 0 104 70 0 70 0 0 -460z m4540 0 l0 -461 -309 3 -309 3 -27 25 c-51
47 -55 70 -55 327 0 262 4 284 63 327 27 20 44 21 263 24 l234 3 0 105 0 104
70 0 70 0 0 -460z m-5389 315 c16 -9 39 -30 49 -48 19 -30 20 -52 20 -379 l0
-348 -70 0 -70 0 -2 173 -3 172 -157 3 -158 3 0 -176 0 -175 -75 0 -75 0 0
343 c0 471 -17 447 308 447 164 0 209 -3 233 -15z m1071 -102 c8 -21 51 -136
94 -255 43 -120 81 -218 84 -218 3 0 27 57 54 128 27 70 59 152 71 182 12 30
34 88 50 128 l28 72 78 0 78 0 -20 -47 c-11 -27 -67 -163 -124 -303 -57 -140
-113 -279 -126 -307 l-22 -53 -71 0 -72 0 -84 213 c-46 116 -110 276 -141 355
l-57 142 83 0 83 0 14 -37z m1199 14 c67 -44 69 -57 69 -389 l0 -298 -307 0
c-288 0 -310 1 -340 20 -56 33 -65 66 -61 207 l3 125 36 33 c47 42 84 47 332
43 l187 -3 0 73 0 72 -280 0 -280 0 0 70 0 70 304 0 c298 0 304 0 337 -23z
m764 9 c63 -27 65 -39 65 -386 l0 -310 -70 0 -70 0 0 285 0 285 -195 0 -195 0
0 -285 0 -285 -70 0 -70 0 0 355 0 355 285 0 c224 0 293 -3 320 -14z m835 -56
l0 -70 -272 -2 -273 -3 0 -210 0 -210 273 -3 272 -2 0 -70 0 -70 -301 0 c-266
0 -304 2 -330 17 -55 33 -59 56 -59 335 0 378 -22 358 398 358 l292 0 0 -70z
m697 44 c48 -36 58 -68 58 -189 0 -132 -14 -166 -78 -196 -37 -16 -68 -19
-264 -19 l-223 0 0 -70 0 -70 265 0 265 0 0 -70 0 -70 -287 0 c-405 0 -383
-21 -383 357 0 370 -16 355 362 351 242 -3 258 -4 285 -24z"/>
<path d="M5550 5093 l0 -178 535 0 535 0 0 178 0 177 -535 0 -535 0 0 -177z"/>
<path d="M2100 2655 l0 -215 210 0 210 0 -2 213 -3 212 -207 3 -208 2 0 -215z"/>
<path d="M6650 2655 l0 -215 205 0 205 0 0 215 0 215 -205 0 -205 0 0 -215z"/>
<path d="M1420 2868 l0 -78 160 0 160 0 0 75 0 74 -160 3 -160 3 0 -77z"/>
<path d="M3580 2510 l0 -70 210 0 210 0 0 70 0 70 -210 0 -210 0 0 -70z"/>
<path d="M5870 2800 l0 -70 210 0 210 0 0 70 0 70 -210 0 -210 0 0 -70z"/>
</g>
</svg>
